<svg fill="none" height="419" width="2500" xmlns="http://www.w3.org/2000/svg" viewBox="0 0.684 1080 180.02700000000002"><path clip-rule="evenodd" d="M288.606.684l-92.091 180.027h-86.499l38.54-74.611h-1.729C115.032 147.374 67.593 174.545 0 180.711v-73.578s43.24-2.554 68.661-29.28H0V.686h77.168v63.469l1.732-.007L110.433.686h58.36v63.066l1.732-.003L203.241.684z" fill="#146ef5" fill-rule="evenodd"/><g fill="#080808"><path d="M790.78 160.84h24.852V18.187H790.78z"/><path clip-rule="evenodd" d="M653.772 159.383c5.402 2.246 10.894 3.368 16.478 3.368 9.225 0 17.478-2.245 24.761-6.736s12.927-10.682 16.933-18.571c4.006-7.951 6.008-16.963 6.008-27.038s-2.063-19.087-6.19-27.038c-4.127-7.95-9.862-14.11-17.206-18.48-7.343-4.43-15.688-6.615-25.035-6.554a43.561 43.561 0 0 0-17.114 3.459c-5.463 2.306-10.014 5.583-13.656 9.832-.281.323-.554.65-.819.98V18.278h-24.944V160.84h24.762l-.05-13.318a35.96 35.96 0 0 0 2.053 2.302c3.945 4.067 8.618 7.253 14.019 9.559zm25.49-23.032c-4.066 2.488-8.709 3.733-13.928 3.733-5.159 0-9.893-1.275-14.202-3.824-4.309-2.61-7.738-6.16-10.287-10.651-2.488-4.491-3.732-9.589-3.732-15.294-.061-5.705 1.153-10.803 3.641-15.294 2.549-4.552 5.978-8.072 10.287-10.56 4.309-2.55 9.073-3.793 14.293-3.733 5.219-.06 9.862 1.153 13.928 3.642 4.127 2.427 7.283 5.917 9.468 10.469 2.245 4.49 3.368 9.65 3.368 15.476s-1.123 10.985-3.368 15.476c-2.185 4.491-5.341 8.011-9.468 10.56z" fill-rule="evenodd"/><path d="M324.611 26.835h28.403l25.408 92.79 27.029-92.79h23.669l29.314 90.928 24.397-90.928h26.036L470.45 160.84h-24.489l-29.807-88.83-27.363 88.83h-24.762z"/><path clip-rule="evenodd" d="M550.811 163.207c-9.893.06-18.814-2.125-26.765-6.555-7.889-4.491-14.11-10.712-18.662-18.662-4.491-7.951-6.737-17.024-6.737-27.22 0-9.892 2.307-18.844 6.919-26.856 4.612-8.01 10.864-14.262 18.753-18.753 7.89-4.49 16.69-6.737 26.401-6.737 10.924 0 20.483 2.428 28.676 7.283 8.254 4.856 14.414 11.744 18.48 20.665 4.127 8.861 5.614 19.027 4.461 30.497h-77.979c.218 4.57 1.358 8.728 3.421 12.472 2.306 4.127 5.523 7.344 9.649 9.65 4.127 2.306 8.74 3.459 13.838 3.459 3.884-.06 7.495-.728 10.833-2.002 3.338-1.335 6.16-3.126 8.467-5.371 2.366-2.246 4.035-4.795 5.006-7.647h26.037c-1.578 6.979-4.734 13.2-9.468 18.662-4.734 5.401-10.682 9.619-17.843 12.654-7.162 3.034-14.991 4.521-23.487 4.461zM527.87 91.835a26.294 26.294 0 0 0-3.023 8.193h51.69c-.375-3.697-1.516-7.065-3.423-10.105-2.184-3.58-5.158-6.342-8.921-8.284-3.763-2.003-8.011-3.004-12.745-3.004-5.037 0-9.619 1.153-13.746 3.459-4.127 2.306-7.405 5.553-9.832 9.74z" fill-rule="evenodd"/><path d="M736.25 60.518c0-8.132 1.852-15.354 5.554-21.666 3.702-6.373 8.891-11.319 15.567-14.839 6.736-3.58 14.596-5.432 23.578-5.553v22.122c-4.188.06-7.768.94-10.742 2.64-2.913 1.638-5.159 4.036-6.737 7.191-1.453 2.906-2.237 6.274-2.352 10.105h19.285v21.03h-19.3v79.292H736.25V81.548h-16.022v-21.03z"/><path clip-rule="evenodd" d="M878.811 163.025c-10.135 0-19.208-2.216-27.22-6.646-7.95-4.491-14.201-10.682-18.753-18.571-4.491-7.951-6.737-16.963-6.737-27.038 0-10.135 2.246-19.178 6.737-27.129 4.552-8.01 10.803-14.231 18.753-18.662 8.012-4.43 17.085-6.645 27.22-6.645 10.196 0 19.3 2.215 27.311 6.645 8.072 4.43 14.353 10.62 18.844 18.571 4.491 7.95 6.767 17.024 6.828 27.22-.061 10.075-2.337 19.087-6.828 27.038-4.43 7.889-10.681 14.08-18.753 18.571-8.072 4.43-17.206 6.646-27.402 6.646zm0-22.85c5.341 0 10.075-1.214 14.202-3.642 4.127-2.488 7.313-5.948 9.558-10.378 2.246-4.491 3.369-9.619 3.369-15.385 0-5.826-1.123-10.985-3.369-15.476-2.245-4.491-5.431-7.95-9.558-10.378-4.127-2.488-8.861-3.732-14.202-3.732-5.28 0-9.983 1.244-14.11 3.732-4.067 2.428-7.223 5.887-9.468 10.378-2.246 4.491-3.338 9.65-3.277 15.476 0 5.766 1.122 10.894 3.368 15.385 2.306 4.43 5.462 7.89 9.468 10.378 4.066 2.428 8.739 3.642 14.019 3.642z" fill-rule="evenodd"/><path d="M958.649 60.518h-27.674l29.95 100.322h24.216l19.699-64.075 21.27 64.075h23.85L1080 60.518h-25.03l-17.04 62.444-18.83-62.444h-24.218l-18.741 63.82z"/></g></svg>